<svg xmlns="http://www.w3.org/2000/svg" viewBox="0 0 100 100">
  <!-- Summit Dark background with rounded corners -->
  <rect width="100" height="100" rx="22" fill="#374D59"/>
  <!-- HyPair icon mark centred with ~15% padding, Sun Valley gold -->
  <g transform="translate(24.65,-16.5) scale(0.2044)">
    <path d="M350,399.3c-26.8,0-48.6,21.8-48.6,48.6c0,26.8,21.8,48.6,48.6,48.6s48.6-21.8,48.6-48.6C398.6,421.1,376.8,399.3,350,399.3z M350,463.9c-8.8,0-16-7.2-16-16c0-8.8,7.2-16,16-16c8.8,0,16,7.2,16,16C366,456.7,358.8,463.9,350,463.9z" fill="#F2D079"/>
    <polygon points="412.1,154.1 374.4,154.1 374.4,281.6 325.6,281.6 325.6,154.1 287.9,154.1 287.9,319.2 412.1,319.2" fill="#F2D079"/>
    <polygon points="401.5,336.6 298.5,336.6 298.4,336.6 298.4,336.8 226,409.1 226,496.4 258.5,496.4 258.5,422.6 306.9,374.3 393.1,374.3 441.5,422.6 441.5,496.4 474,496.4 474,409.1" fill="#F2D079"/>
  </g>
</svg>
