<svg xmlns="http://www.w3.org/2000/svg" viewBox="119.21093896484376 40.2550048828125 336.578125 494.48999977111816"><rect height="100%" width="100%" x="119.21093896484376" y="40.2550048828125" fill="rgba(65, 100, 66, 1)"/> <svg xmlns="http://www.w3.org/2000/svg" xmlns:xlink="http://www.w3.org/1999/xlink" version="1.1" id="Layer_1" x="189.21093896484376" y="110.2550048828125" viewBox="226 154.10000610351562 248 342.3999938964844" xml:space="preserve" height="271.4046468553148" width="196.57812499999997" preserveAspectRatio="xMinYMin" enable-background="new 0 0 700 700" style="overflow: visible;"><path d="M350,399.3c-26.8,0-48.6,21.8-48.6,48.6c0,26.8,21.8,48.6,48.6,48.6s48.6-21.8,48.6-48.6   C398.6,421.1,376.8,399.3,350,399.3z M350,463.9c-8.8,0-16-7.2-16-16c0-8.8,7.2-16,16-16c8.8,0,16,7.2,16,16   C366,456.7,358.8,463.9,350,463.9z" style="fill: #2C263F; fill-opacity: 1;"></path><polygon points="412.1,154.1 374.4,154.1 374.4,281.6 325.6,281.6 325.6,154.1 287.9,154.1 287.9,319.2 412.1,319.2  " style="fill: #2C263F; fill-opacity: 1;"></polygon><polygon points="401.5,336.6 401.5,336.6 401.5,336.6 298.5,336.6 298.5,336.6 298.5,336.6 298.4,336.6 298.4,336.8 226,409.1    226,496.4 258.5,496.4 258.5,422.6 306.9,374.3 393.1,374.3 441.5,422.6 441.5,496.4 474,496.4 474,409.1  " style="fill: #2C263F; fill-opacity: 1;"></polygon></svg> <svg xmlns="http://www.w3.org/2000/svg" y="450.2550048828125" viewBox="0.5799999833106995 9.350000381469727 181.45999145507812 14.489999771118164" x="196.76994201660156" height="14.489999771118164" width="181.45999145507812" style="overflow: visible;"><g fill="#F8C662" fill-opacity="1" style=""><path d="M4.80 20.49L4.80 20.49Q3.55 20.49 2.73 20.17Q1.92 19.86 1.44 19.20Q0.97 18.54 0.77 17.50Q0.58 16.47 0.58 15.00L0.58 15.00Q0.58 13.54 0.77 12.49Q0.97 11.45 1.44 10.80Q1.92 10.14 2.75 9.83Q3.58 9.52 4.88 9.52L4.88 9.52Q5.37 9.52 5.94 9.57Q6.50 9.63 7.03 9.72Q7.57 9.81 7.96 9.91L7.96 9.91L7.90 11.84Q7.59 11.79 7.14 11.75Q6.68 11.70 6.21 11.66Q5.73 11.62 5.31 11.62L5.31 11.62Q4.61 11.62 4.18 11.79Q3.74 11.96 3.50 12.36Q3.26 12.76 3.17 13.40Q3.08 14.04 3.08 15.00L3.08 15.00Q3.08 15.95 3.17 16.60Q3.26 17.25 3.50 17.64Q3.74 18.02 4.18 18.20Q4.61 18.37 5.33 18.37L5.33 18.37Q5.95 18.37 6.69 18.30Q7.43 18.24 7.91 18.20L7.91 18.20L7.96 20.11Q7.60 20.19 7.08 20.28Q6.56 20.38 5.96 20.43Q5.36 20.49 4.80 20.49ZM12.63 20.49L12.63 20.49Q11.31 20.49 10.48 20.06Q9.64 19.63 9.26 18.71Q8.88 17.79 8.88 16.34L8.88 16.34Q8.88 14.91 9.28 14.02Q9.67 13.13 10.52 12.71Q11.36 12.29 12.63 12.29L12.63 12.29Q13.94 12.29 14.78 12.71Q15.61 13.13 16.01 14.02Q16.40 14.91 16.40 16.34L16.40 16.34Q16.40 17.79 16.02 18.71Q15.64 19.63 14.81 20.06Q13.97 20.49 12.63 20.49ZM12.63 18.52L12.63 18.52Q13.21 18.52 13.50 18.30Q13.79 18.09 13.89 17.60Q13.99 17.12 13.99 16.34L13.99 16.34Q13.99 15.55 13.87 15.10Q13.74 14.64 13.45 14.44Q13.16 14.24 12.63 14.24L12.63 14.24Q12.12 14.24 11.82 14.44Q11.53 14.64 11.40 15.10Q11.28 15.56 11.28 16.34L11.28 16.34Q11.28 17.12 11.39 17.60Q11.50 18.09 11.79 18.30Q12.07 18.52 12.63 18.52ZM20.05 20.30L17.67 20.30L17.67 12.46L20.03 12.46L20.03 12.95Q20.28 12.79 20.63 12.64Q20.97 12.49 21.35 12.39Q21.73 12.29 22.07 12.29L22.07 12.29Q22.90 12.29 23.45 12.50Q23.99 12.71 24.32 13.18Q24.65 13.65 24.79 14.41Q24.93 15.17 24.93 16.26L24.93 16.26L24.93 20.30L22.54 20.30L22.54 16.40Q22.54 15.67 22.45 15.22Q22.36 14.77 22.12 14.57Q21.89 14.36 21.45 14.36L21.45 14.36Q21.20 14.36 20.94 14.41Q20.67 14.46 20.44 14.53Q20.21 14.61 20.05 14.69L20.05 14.69L20.05 20.30ZM28.76 20.30L26.37 20.30L26.37 12.46L28.74 12.46L28.74 12.95Q28.99 12.79 29.33 12.64Q29.68 12.49 30.06 12.39Q30.44 12.29 30.78 12.29L30.78 12.29Q31.61 12.29 32.15 12.50Q32.70 12.71 33.03 13.18Q33.35 13.65 33.49 14.41Q33.63 15.17 33.63 16.26L33.63 16.26L33.63 20.30L31.25 20.30L31.25 16.40Q31.25 15.67 31.16 15.22Q31.06 14.77 30.83 14.57Q30.60 14.36 30.16 14.36L30.16 14.36Q29.91 14.36 29.65 14.41Q29.38 14.46 29.15 14.53Q28.91 14.61 28.76 14.69L28.76 14.69L28.76 20.30ZM38.39 20.49L38.39 20.49Q37.06 20.49 36.27 20.05Q35.49 19.61 35.15 18.73Q34.82 17.84 34.82 16.48L34.82 16.48Q34.82 15.06 35.23 14.14Q35.64 13.21 36.45 12.75Q37.26 12.29 38.49 12.29L38.49 12.29Q40.30 12.29 41.21 13.16Q42.12 14.04 42.12 15.92L42.12 15.92L42.00 17.15L37.20 17.15Q37.22 17.90 37.52 18.27Q37.82 18.63 38.57 18.63L38.57 18.63Q39.06 18.63 39.66 18.61Q40.26 18.59 40.85 18.55Q41.44 18.52 41.86 18.49L41.86 18.49L41.91 20.11Q41.50 20.19 40.89 20.28Q40.29 20.36 39.63 20.42Q38.98 20.49 38.39 20.49ZM37.19 15.70L37.19 15.70L39.74 15.70Q39.74 14.77 39.45 14.40Q39.15 14.04 38.49 14.04L38.49 14.04Q38.06 14.04 37.77 14.20Q37.48 14.36 37.34 14.73Q37.20 15.10 37.19 15.70ZM46.64 20.49L46.64 20.49Q45.26 20.49 44.48 20.07Q43.70 19.66 43.39 18.74Q43.07 17.82 43.07 16.33L43.07 16.33Q43.07 14.82 43.43 13.94Q43.79 13.05 44.58 12.67Q45.37 12.29 46.64 12.29L46.64 12.29Q47.00 12.29 47.45 12.34Q47.90 12.39 48.36 12.46Q48.81 12.54 49.14 12.62L49.14 12.62L49.06 14.52Q48.75 14.49 48.36 14.46Q47.97 14.43 47.61 14.40Q47.25 14.38 47.03 14.38L47.03 14.38Q46.44 14.38 46.10 14.57Q45.75 14.75 45.61 15.18Q45.47 15.61 45.47 16.33L45.47 16.33Q45.47 17.07 45.61 17.53Q45.74 17.99 46.07 18.19Q46.41 18.38 47.03 18.38L47.03 18.38Q47.25 18.38 47.62 18.36Q47.98 18.34 48.38 18.30Q48.78 18.27 49.09 18.26L49.09 18.26L49.15 20.14Q48.84 20.22 48.40 20.29Q47.95 20.36 47.48 20.42Q47.02 20.49 46.64 20.49ZM53.15 20.49L53.15 20.49Q52.28 20.49 51.74 20.24Q51.19 20.00 50.95 19.39Q50.71 18.77 50.71 17.65L50.71 17.65L50.71 14.43L49.87 14.43L49.87 12.46L50.71 12.46L50.71 10.52L53.09 10.52L53.09 12.46L54.93 12.46L54.93 14.43L53.09 14.43L53.09 17.06Q53.09 17.59 53.15 17.88Q53.20 18.18 53.37 18.30Q53.54 18.43 53.89 18.43L53.89 18.43Q53.98 18.43 54.18 18.41Q54.39 18.40 54.60 18.39Q54.81 18.38 54.91 18.37L54.91 18.37L54.98 20.25Q54.73 20.30 54.39 20.35Q54.06 20.41 53.72 20.45Q53.39 20.49 53.15 20.49ZM58.36 20.30L55.97 20.30L55.97 12.46L58.36 12.46L58.36 20.30ZM58.36 11.37L55.97 11.37L55.97 9.47L58.36 9.47L58.36 11.37ZM62.27 20.30L59.88 20.30L59.88 12.46L62.25 12.46L62.25 12.95Q62.50 12.79 62.84 12.64Q63.19 12.49 63.57 12.39Q63.95 12.29 64.29 12.29L64.29 12.29Q65.12 12.29 65.66 12.50Q66.21 12.71 66.54 13.18Q66.86 13.65 67.00 14.41Q67.14 15.17 67.14 16.26L67.14 16.26L67.14 20.30L64.76 20.30L64.76 16.40Q64.76 15.67 64.67 15.22Q64.57 14.77 64.34 14.57Q64.11 14.36 63.67 14.36L63.67 14.36Q63.42 14.36 63.16 14.41Q62.89 14.46 62.66 14.53Q62.42 14.61 62.27 14.69L62.27 14.69L62.27 20.30ZM72.18 23.84L72.18 23.84Q70.93 23.84 70.06 23.66Q69.18 23.48 68.74 22.99Q68.30 22.51 68.30 21.59L68.30 21.59Q68.30 21.19 68.41 20.88Q68.51 20.56 68.76 20.28Q69.01 19.99 69.40 19.69L69.40 19.69Q69.18 19.52 69.04 19.22Q68.90 18.91 68.90 18.55L68.90 18.55Q68.90 18.43 69.02 18.22Q69.14 18.01 69.31 17.78Q69.48 17.56 69.64 17.39L69.64 17.39Q69.33 17.23 69.04 16.96Q68.76 16.68 68.58 16.22Q68.39 15.75 68.39 15.03L68.39 15.03Q68.39 14.02 68.77 13.42Q69.15 12.82 69.91 12.56Q70.66 12.29 71.79 12.29L71.79 12.29Q72.18 12.29 72.65 12.35Q73.13 12.40 73.41 12.48L73.41 12.48L76.01 12.42L76.01 13.97L74.92 13.96Q75.06 14.13 75.15 14.39Q75.24 14.66 75.24 15.03L75.24 15.03Q75.24 16.12 74.87 16.72Q74.50 17.31 73.75 17.53Q73.00 17.76 71.83 17.76L71.83 17.76Q71.71 17.76 71.51 17.74Q71.30 17.71 71.16 17.70L71.16 17.70Q71.12 17.82 71.05 17.99Q70.99 18.15 70.99 18.23L70.99 18.23Q70.99 18.37 71.07 18.45Q71.15 18.52 71.35 18.57Q71.55 18.62 71.93 18.63Q72.32 18.65 72.95 18.65L72.95 18.65Q74.06 18.65 74.72 18.86Q75.37 19.07 75.65 19.59Q75.93 20.11 75.93 21.05L75.93 21.05Q75.93 22.45 74.93 23.14Q73.94 23.84 72.18 23.84ZM72.04 22.11L72.04 22.11Q72.94 22.11 73.33 21.92Q73.72 21.73 73.72 21.30L73.72 21.30Q73.72 20.97 73.58 20.81Q73.44 20.64 73.12 20.59Q72.80 20.55 72.25 20.55L72.25 20.55Q72.10 20.55 71.88 20.54Q71.66 20.53 71.46 20.52Q71.26 20.52 71.09 20.51Q70.91 20.50 70.84 20.49L70.84 20.49Q70.65 20.61 70.54 20.74Q70.43 20.86 70.38 20.99Q70.34 21.12 70.34 21.31L70.34 21.31Q70.34 21.61 70.50 21.78Q70.66 21.95 71.04 22.03Q71.41 22.11 72.04 22.11ZM71.80 16.12L71.80 16.12Q72.43 16.12 72.70 15.87Q72.97 15.61 72.97 15.02L72.97 15.02Q72.97 14.43 72.70 14.17Q72.43 13.91 71.80 13.91L71.80 13.91Q71.19 13.91 70.93 14.17Q70.66 14.43 70.66 15.02L70.66 15.02Q70.66 15.61 70.93 15.87Q71.19 16.12 71.80 16.12ZM82.75 20.30L80.37 20.30L80.37 9.35L82.75 9.35L82.75 12.71Q83.00 12.62 83.36 12.53Q83.72 12.43 84.09 12.36Q84.47 12.29 84.76 12.29L84.76 12.29Q85.59 12.29 86.14 12.50Q86.70 12.71 87.02 13.17Q87.35 13.63 87.48 14.38Q87.61 15.13 87.61 16.20L87.61 16.20L87.61 20.30L85.23 20.30L85.23 16.40Q85.23 15.67 85.15 15.22Q85.06 14.77 84.83 14.57Q84.59 14.36 84.14 14.36L84.14 14.36Q83.89 14.36 83.63 14.40Q83.38 14.44 83.14 14.50Q82.91 14.57 82.75 14.63L82.75 14.63L82.75 20.30ZM93.66 23.54L91.10 23.54L92.10 20.30L90.26 20.30L88.52 12.46L91.01 12.46L92.23 18.29L92.58 18.29L93.78 12.46L96.17 12.46L93.66 23.54ZM100.40 20.49L100.40 20.49Q100.00 20.49 99.41 20.44Q98.82 20.39 98.20 20.33Q97.58 20.27 97.10 20.21L97.10 20.21L97.10 9.35L99.49 9.35L99.49 12.68Q99.72 12.59 100.05 12.50Q100.39 12.42 100.75 12.35Q101.11 12.29 101.42 12.29L101.42 12.29Q102.52 12.29 103.18 12.75Q103.83 13.21 104.11 14.09Q104.39 14.97 104.39 16.25L104.39 16.25Q104.39 17.82 104.03 18.75Q103.68 19.68 102.80 20.08Q101.93 20.49 100.40 20.49ZM100.44 18.51L100.44 18.51Q101.09 18.51 101.42 18.25Q101.74 17.99 101.86 17.49Q101.98 17.00 101.98 16.30L101.98 16.30Q101.98 15.55 101.87 15.10Q101.76 14.66 101.49 14.46Q101.23 14.27 100.78 14.27L100.78 14.27Q100.58 14.27 100.33 14.31Q100.08 14.35 99.86 14.41Q99.64 14.47 99.49 14.53L99.49 14.53L99.49 18.45Q99.69 18.46 99.97 18.48Q100.25 18.51 100.44 18.51ZM108.05 20.30L105.67 20.30L105.67 12.46L108.05 12.46L108.05 13.35Q108.30 13.15 108.68 12.92Q109.05 12.70 109.47 12.51Q109.89 12.32 110.28 12.28L110.28 12.28L110.28 14.55Q109.91 14.60 109.49 14.73Q109.07 14.86 108.69 15.03Q108.32 15.19 108.05 15.33L108.05 15.33L108.05 20.30ZM113.63 20.30L111.25 20.30L111.25 12.46L113.63 12.46L113.63 20.30ZM113.63 11.37L111.25 11.37L111.25 9.47L113.63 9.47L113.63 11.37ZM117.85 20.49L117.85 20.49Q117.26 20.49 116.78 20.34Q116.29 20.19 115.94 19.89Q115.59 19.58 115.36 19.11Q115.13 18.63 115.01 17.96Q114.89 17.29 114.89 16.42L114.89 16.42Q114.89 15.10 115.23 14.18Q115.56 13.26 116.30 12.77Q117.04 12.29 118.26 12.29L118.26 12.29Q118.48 12.29 118.76 12.31Q119.05 12.34 119.34 12.37Q119.63 12.40 119.82 12.43L119.82 12.43L119.82 9.35L122.20 9.35L122.20 20.30L119.85 20.30L119.83 19.88Q119.61 20.00 119.28 20.14Q118.94 20.28 118.58 20.38Q118.21 20.49 117.85 20.49ZM118.51 18.51L118.51 18.51Q118.74 18.51 118.99 18.45Q119.24 18.40 119.46 18.33Q119.68 18.26 119.82 18.21L119.82 18.21L119.82 14.36Q119.69 14.33 119.49 14.31Q119.29 14.29 119.07 14.27Q118.85 14.25 118.68 14.25L118.68 14.25Q118.13 14.25 117.84 14.52Q117.54 14.78 117.42 15.26Q117.31 15.73 117.31 16.42L117.31 16.42Q117.31 17.01 117.39 17.41Q117.46 17.81 117.62 18.05Q117.77 18.29 118.00 18.40Q118.23 18.51 118.51 18.51ZM129.29 20.49L129.29 20.49Q128.01 20.49 127.38 19.86Q126.75 19.24 126.75 17.96L126.75 17.96Q126.75 17.06 127.08 16.57Q127.42 16.08 128.06 15.86Q128.70 15.64 129.60 15.59L129.60 15.59L131.34 15.45L131.34 15.05Q131.34 14.58 131.09 14.39Q130.83 14.19 130.33 14.19L130.33 14.19Q129.88 14.19 129.30 14.22Q128.73 14.25 128.17 14.30Q127.60 14.35 127.20 14.39L127.20 14.39L127.12 12.74Q127.54 12.63 128.13 12.53Q128.71 12.43 129.35 12.36Q129.99 12.29 130.55 12.29L130.55 12.29Q131.56 12.29 132.27 12.53Q132.98 12.77 133.35 13.34Q133.73 13.91 133.73 14.92L133.73 14.92L133.73 18.35Q133.77 18.54 133.95 18.64Q134.13 18.74 134.35 18.79L134.35 18.79L134.30 20.38Q134.07 20.39 133.81 20.42Q133.54 20.44 133.31 20.43Q133.07 20.42 132.92 20.41L132.92 20.41Q132.51 20.36 132.22 20.21Q131.94 20.07 131.80 19.91L131.80 19.91Q131.55 20.02 131.14 20.16Q130.74 20.30 130.26 20.39Q129.79 20.49 129.29 20.49ZM129.88 18.76L129.88 18.76Q130.14 18.76 130.42 18.69Q130.69 18.63 130.94 18.55Q131.19 18.48 131.34 18.41L131.34 18.41L131.34 16.87L129.97 17.00Q129.54 17.04 129.33 17.27Q129.13 17.49 129.13 17.90L129.13 17.90Q129.13 18.29 129.32 18.52Q129.51 18.76 129.88 18.76ZM138.18 20.49L138.18 20.49Q137.31 20.49 136.77 20.24Q136.22 20.00 135.98 19.39Q135.74 18.77 135.74 17.65L135.74 17.65L135.74 14.43L134.90 14.43L134.90 12.46L135.74 12.46L135.74 10.52L138.12 10.52L138.12 12.46L139.96 12.46L139.96 14.43L138.12 14.43L138.12 17.06Q138.12 17.59 138.17 17.88Q138.23 18.18 138.40 18.30Q138.57 18.43 138.91 18.43L138.91 18.43Q139.01 18.43 139.21 18.41Q139.41 18.40 139.62 18.39Q139.83 18.38 139.94 18.37L139.94 18.37L140.01 20.25Q139.76 20.30 139.42 20.35Q139.09 20.41 138.75 20.45Q138.42 20.49 138.18 20.49ZM143.39 20.30L141.00 20.30L141.00 9.35L143.39 9.35L143.39 12.71Q143.64 12.62 143.99 12.53Q144.35 12.43 144.73 12.36Q145.10 12.29 145.40 12.29L145.40 12.29Q146.22 12.29 146.77 12.50Q147.33 12.71 147.65 13.17Q147.98 13.63 148.11 14.38Q148.25 15.13 148.25 16.20L148.25 16.20L148.25 20.30L145.86 20.30L145.86 16.40Q145.86 15.67 145.78 15.22Q145.69 14.77 145.46 14.57Q145.22 14.36 144.77 14.36L144.77 14.36Q144.52 14.36 144.27 14.40Q144.01 14.44 143.78 14.50Q143.54 14.57 143.39 14.63L143.39 14.63L143.39 20.30ZM152.14 20.30L149.76 20.30L149.76 9.35L152.14 9.35L152.14 20.30ZM157.02 20.49L157.02 20.49Q155.69 20.49 154.91 20.05Q154.12 19.61 153.78 18.73Q153.45 17.84 153.45 16.48L153.45 16.48Q153.45 15.06 153.86 14.14Q154.28 13.21 155.09 12.75Q155.90 12.29 157.13 12.29L157.13 12.29Q158.93 12.29 159.84 13.16Q160.76 14.04 160.76 15.92L160.76 15.92L160.63 17.15L155.83 17.15Q155.85 17.90 156.15 18.27Q156.46 18.63 157.20 18.63L157.20 18.63Q157.69 18.63 158.29 18.61Q158.89 18.59 159.48 18.55Q160.07 18.52 160.49 18.49L160.49 18.49L160.54 20.11Q160.13 20.19 159.53 20.28Q158.92 20.36 158.26 20.42Q157.61 20.49 157.02 20.49ZM155.82 15.70L155.82 15.70L158.37 15.70Q158.37 14.77 158.08 14.40Q157.78 14.04 157.13 14.04L157.13 14.04Q156.69 14.04 156.40 14.20Q156.11 14.36 155.97 14.73Q155.83 15.10 155.82 15.70ZM164.76 20.49L164.76 20.49Q163.89 20.49 163.34 20.24Q162.80 20.00 162.56 19.39Q162.31 18.77 162.31 17.65L162.31 17.65L162.31 14.43L161.47 14.43L161.47 12.46L162.31 12.46L162.31 10.52L164.70 10.52L164.70 12.46L166.54 12.46L166.54 14.43L164.70 14.43L164.70 17.06Q164.70 17.59 164.75 17.88Q164.81 18.18 164.98 18.30Q165.15 18.43 165.49 18.43L165.49 18.43Q165.59 18.43 165.79 18.41Q165.99 18.40 166.20 18.39Q166.41 18.38 166.52 18.37L166.52 18.37L166.58 20.25Q166.33 20.30 166.00 20.35Q165.66 20.41 165.33 20.45Q164.99 20.49 164.76 20.49ZM170.88 20.49L170.88 20.49Q169.56 20.49 168.77 20.05Q167.98 19.61 167.65 18.73Q167.31 17.84 167.31 16.48L167.31 16.48Q167.31 15.06 167.73 14.14Q168.14 13.21 168.95 12.75Q169.76 12.29 170.99 12.29L170.99 12.29Q172.80 12.29 173.71 13.16Q174.62 14.04 174.62 15.92L174.62 15.92L174.50 17.15L169.70 17.15Q169.71 17.90 170.02 18.27Q170.32 18.63 171.07 18.63L171.07 18.63Q171.55 18.63 172.15 18.61Q172.75 18.59 173.34 18.55Q173.94 18.52 174.36 18.49L174.36 18.49L174.40 20.11Q174.00 20.19 173.39 20.28Q172.78 20.36 172.13 20.42Q171.47 20.49 170.88 20.49ZM169.68 15.70L169.68 15.70L172.24 15.70Q172.24 14.77 171.94 14.40Q171.65 14.04 170.99 14.04L170.99 14.04Q170.56 14.04 170.27 14.20Q169.98 14.36 169.84 14.73Q169.70 15.10 169.68 15.70ZM178.78 20.49L178.78 20.49Q178.20 20.49 177.60 20.42Q176.99 20.36 176.48 20.28Q175.96 20.19 175.62 20.11L175.62 20.11L175.70 18.40Q176.10 18.45 176.62 18.51Q177.13 18.57 177.63 18.62Q178.13 18.66 178.44 18.66L178.44 18.66Q178.86 18.66 179.12 18.60Q179.39 18.54 179.52 18.38Q179.65 18.23 179.65 17.95L179.65 17.95Q179.65 17.74 179.52 17.62Q179.39 17.49 179.05 17.41Q178.72 17.32 178.06 17.23L178.06 17.23Q177.19 17.11 176.63 16.86Q176.07 16.62 175.81 16.15Q175.56 15.67 175.56 14.88L175.56 14.88Q175.56 13.87 175.98 13.30Q176.41 12.74 177.13 12.52Q177.85 12.29 178.70 12.29L178.70 12.29Q179.29 12.29 179.89 12.35Q180.49 12.40 181.01 12.48Q181.52 12.56 181.87 12.63L181.87 12.63L181.79 14.41Q181.40 14.35 180.88 14.29Q180.35 14.24 179.85 14.21Q179.34 14.18 179.00 14.18L179.00 14.18Q178.67 14.18 178.43 14.23Q178.19 14.29 178.06 14.42Q177.94 14.55 177.94 14.80L177.94 14.80Q177.94 14.99 178.05 15.10Q178.16 15.22 178.48 15.31Q178.81 15.39 179.43 15.47L179.43 15.47Q180.39 15.59 180.96 15.86Q181.54 16.12 181.79 16.60Q182.04 17.07 182.04 17.88L182.04 17.88Q182.04 18.83 181.66 19.40Q181.29 19.97 180.56 20.23Q179.82 20.49 178.78 20.49Z" transform="translate(0, 0)"></path></g></svg> <svg xmlns="http://www.w3.org/2000/svg" y="397.2550048828125" viewBox="3.940000057220459 9.890000343322754 135.72999572753906 44.630001068115234" x="219.6349429321289" height="44.630001068115234" width="135.72999572753906" style="overflow: visible;"><g fill="#F8C662" fill-opacity="1" style=""><path d="M7.75 24.96L26.13 24.96L26.13 28.62L7.75 28.62L7.75 24.96ZM3.94 10.36L8.44 10.36L8.44 44.32L3.94 44.32L3.94 10.36ZM25.57 10.36L30.05 10.36L30.05 44.32L25.57 44.32L25.57 10.36ZM42.67 46.61L44.46 41.71L51.49 19.08L56.10 19.08L45.98 48.22Q45.63 49.15 45.06 50.24Q44.49 51.32 43.60 52.30Q42.71 53.28 41.47 53.90Q40.22 54.52 38.49 54.52L38.49 54.52Q37.98 54.52 37.19 54.38Q36.39 54.24 36.07 54.15L36.07 54.15L36.04 50.65Q36.23 50.67 36.64 50.70Q37.05 50.74 37.21 50.74L37.21 50.74Q38.68 50.74 39.70 50.35Q40.73 49.97 41.44 49.07Q42.15 48.17 42.67 46.61L42.67 46.61ZM34.60 19.08L39.31 19.08L45.86 38.68L46.98 43.23L43.88 44.81L34.60 19.08ZM73.16 31.00L73.16 31.00L64.08 31.00L64.08 27.34L73.16 27.34Q75.79 27.34 77.43 26.50Q79.06 25.66 79.82 24.17Q80.58 22.68 80.58 20.76L80.58 20.76Q80.58 19.01 79.82 17.47Q79.06 15.93 77.43 14.99Q75.79 14.04 73.16 14.04L73.16 14.04L65.13 14.04L65.13 44.32L60.63 44.32L60.63 10.36L73.16 10.36Q77.01 10.36 79.67 11.69Q82.33 13.02 83.70 15.36Q85.08 17.71 85.08 20.72L85.08 20.72Q85.08 23.98 83.70 26.29Q82.33 28.60 79.67 29.80Q77.01 31.00 73.16 31.00ZM104.74 40.01L104.74 40.01L104.74 27.01Q104.74 25.52 104.15 24.41Q103.55 23.30 102.36 22.70Q101.17 22.09 99.43 22.09L99.43 22.09Q97.79 22.09 96.57 22.65Q95.34 23.21 94.65 24.12Q93.97 25.03 93.97 26.08L93.97 26.08L89.65 26.08Q89.65 24.73 90.35 23.40Q91.05 22.07 92.37 20.98Q93.69 19.90 95.54 19.26Q97.40 18.62 99.68 18.62L99.68 18.62Q102.43 18.62 104.55 19.55Q106.66 20.48 107.86 22.36Q109.06 24.24 109.06 27.06L109.06 27.06L109.06 38.82Q109.06 40.08 109.28 41.50Q109.50 42.92 109.95 43.95L109.95 43.95L109.95 44.32L105.44 44.32Q105.12 43.58 104.93 42.33Q104.74 41.08 104.74 40.01ZM100.48 29.02L105.49 29.02L105.54 32.05L101.17 32.05Q99.33 32.05 97.89 32.34Q96.44 32.64 95.46 33.22Q94.48 33.80 93.97 34.68Q93.45 35.55 93.45 36.72L93.45 36.72Q93.45 37.91 93.99 38.89Q94.53 39.87 95.61 40.44Q96.70 41.01 98.28 41.01L98.28 41.01Q100.27 41.01 101.78 40.17Q103.30 39.33 104.20 38.12Q105.09 36.91 105.16 35.76L105.16 35.76L107.01 37.84Q106.84 38.82 106.12 40.01Q105.40 41.20 104.20 42.28Q102.99 43.37 101.35 44.08Q99.71 44.79 97.65 44.79L97.65 44.79Q95.09 44.79 93.16 43.79Q91.24 42.78 90.18 41.09Q89.11 39.40 89.11 37.30L89.11 37.30Q89.11 35.27 89.91 33.72Q90.70 32.17 92.19 31.13Q93.69 30.09 95.79 29.56Q97.89 29.02 100.48 29.02L100.48 29.02ZM116.20 19.08L120.54 19.08L120.54 44.32L116.20 44.32L116.20 19.08ZM115.87 12.39L115.87 12.39Q115.87 11.34 116.51 10.61Q117.15 9.89 118.41 9.89L118.41 9.89Q119.65 9.89 120.32 10.61Q120.98 11.34 120.98 12.39L120.98 12.39Q120.98 13.39 120.32 14.10Q119.65 14.81 118.41 14.81L118.41 14.81Q117.15 14.81 116.51 14.10Q115.87 13.39 115.87 12.39ZM131.67 19.08L131.78 23.05L131.78 44.32L127.47 44.32L127.47 19.08L131.67 19.08ZM139.67 18.94L139.67 18.94L139.64 22.96Q139.11 22.84 138.63 22.80Q138.15 22.77 137.54 22.77L137.54 22.77Q136.05 22.77 134.91 23.24Q133.76 23.70 132.97 24.54Q132.18 25.38 131.72 26.54Q131.27 27.69 131.13 29.07L131.13 29.07L129.92 29.77Q129.92 27.48 130.37 25.47Q130.83 23.47 131.78 21.92Q132.74 20.37 134.22 19.49Q135.70 18.62 137.75 18.62L137.75 18.62Q138.22 18.62 138.83 18.72Q139.43 18.83 139.67 18.94Z" transform="translate(0, 0)"></path></g></svg></svg>